<mxfile host="app.diagrams.net" agent="Mozilla/5.0 (Windows NT 10.0; Win64; x64) AppleWebKit/537.36 (KHTML, like Gecko) Chrome/131.0.0.0 Safari/537.36" version="24.8.8">
  <diagram name="Сторінка-1" id="iQt4LDvun2t-bALbwQtf">
    <mxGraphModel grid="1" page="1" gridSize="10" guides="1" tooltips="1" connect="1" arrows="1" fold="1" pageScale="1" pageWidth="827" pageHeight="1169" math="0" shadow="0">
      <root>
        <mxCell id="0" />
        <mxCell id="1" parent="0" />
        <mxCell id="X2ZiE_l6V0W_xIytrOba-3" value="" style="edgeStyle=orthogonalEdgeStyle;rounded=0;orthogonalLoop=1;jettySize=auto;html=1;" edge="1" parent="1" source="X2ZiE_l6V0W_xIytrOba-1" target="X2ZiE_l6V0W_xIytrOba-2">
          <mxGeometry relative="1" as="geometry" />
        </mxCell>
        <mxCell id="X2ZiE_l6V0W_xIytrOba-1" value="&lt;font style=&quot;font-size: 18px;&quot;&gt;Start&lt;/font&gt;" style="ellipse;whiteSpace=wrap;html=1;" vertex="1" parent="1">
          <mxGeometry x="80" y="30" width="120" height="80" as="geometry" />
        </mxCell>
        <mxCell id="X2ZiE_l6V0W_xIytrOba-5" value="" style="edgeStyle=orthogonalEdgeStyle;rounded=0;orthogonalLoop=1;jettySize=auto;html=1;" edge="1" parent="1" source="X2ZiE_l6V0W_xIytrOba-2" target="X2ZiE_l6V0W_xIytrOba-4">
          <mxGeometry relative="1" as="geometry" />
        </mxCell>
        <mxCell id="X2ZiE_l6V0W_xIytrOba-2" value="&lt;div style=&quot;font-family: Consolas, &amp;quot;Courier New&amp;quot;, monospace; font-size: 14px; line-height: 19px; white-space: pre;&quot;&gt;string s&lt;/div&gt;" style="rounded=0;whiteSpace=wrap;html=1;" vertex="1" parent="1">
          <mxGeometry x="80" y="150" width="120" height="60" as="geometry" />
        </mxCell>
        <mxCell id="X2ZiE_l6V0W_xIytrOba-7" value="" style="edgeStyle=orthogonalEdgeStyle;rounded=0;orthogonalLoop=1;jettySize=auto;html=1;" edge="1" parent="1" source="X2ZiE_l6V0W_xIytrOba-4" target="X2ZiE_l6V0W_xIytrOba-6">
          <mxGeometry relative="1" as="geometry" />
        </mxCell>
        <mxCell id="X2ZiE_l6V0W_xIytrOba-4" value="&lt;font style=&quot;font-size: 14px;&quot;&gt;Введення &lt;br&gt;рядка&lt;/font&gt;" style="shape=parallelogram;perimeter=parallelogramPerimeter;whiteSpace=wrap;html=1;fixedSize=1;" vertex="1" parent="1">
          <mxGeometry x="80" y="250" width="120" height="60" as="geometry" />
        </mxCell>
        <mxCell id="X2ZiE_l6V0W_xIytrOba-9" value="" style="edgeStyle=orthogonalEdgeStyle;rounded=0;orthogonalLoop=1;jettySize=auto;html=1;" edge="1" parent="1" source="X2ZiE_l6V0W_xIytrOba-6" target="X2ZiE_l6V0W_xIytrOba-8">
          <mxGeometry relative="1" as="geometry" />
        </mxCell>
        <mxCell id="X2ZiE_l6V0W_xIytrOba-6" value="&lt;div style=&quot;font-family: Consolas, &amp;quot;Courier New&amp;quot;, monospace; font-size: 14px; line-height: 19px; white-space: pre;&quot;&gt;&lt;font color=&quot;#030303&quot;&gt;countMeows(s)&lt;/font&gt;&lt;/div&gt;" style="shape=process;whiteSpace=wrap;html=1;backgroundOutline=1;" vertex="1" parent="1">
          <mxGeometry x="70" y="350" width="140" height="60" as="geometry" />
        </mxCell>
        <mxCell id="X2ZiE_l6V0W_xIytrOba-11" value="" style="edgeStyle=orthogonalEdgeStyle;rounded=0;orthogonalLoop=1;jettySize=auto;html=1;" edge="1" parent="1" source="X2ZiE_l6V0W_xIytrOba-8" target="X2ZiE_l6V0W_xIytrOba-10">
          <mxGeometry relative="1" as="geometry" />
        </mxCell>
        <mxCell id="X2ZiE_l6V0W_xIytrOba-8" value="&lt;font style=&quot;font-size: 14px;&quot;&gt;Виведення результату&lt;/font&gt;" style="shape=parallelogram;perimeter=parallelogramPerimeter;whiteSpace=wrap;html=1;fixedSize=1;" vertex="1" parent="1">
          <mxGeometry x="80" y="460" width="120" height="60" as="geometry" />
        </mxCell>
        <mxCell id="X2ZiE_l6V0W_xIytrOba-10" value="&lt;font style=&quot;font-size: 18px;&quot;&gt;End&lt;/font&gt;" style="ellipse;whiteSpace=wrap;html=1;" vertex="1" parent="1">
          <mxGeometry x="80" y="560" width="120" height="80" as="geometry" />
        </mxCell>
        <mxCell id="X2ZiE_l6V0W_xIytrOba-14" value="" style="edgeStyle=orthogonalEdgeStyle;rounded=0;orthogonalLoop=1;jettySize=auto;html=1;" edge="1" parent="1" source="X2ZiE_l6V0W_xIytrOba-12" target="X2ZiE_l6V0W_xIytrOba-13">
          <mxGeometry relative="1" as="geometry" />
        </mxCell>
        <mxCell id="X2ZiE_l6V0W_xIytrOba-12" value="&lt;span style=&quot;color: rgb(3, 3, 3); font-family: Consolas, &amp;quot;Courier New&amp;quot;, monospace; font-size: 14px; white-space: pre;&quot;&gt;countMeows(s)&lt;/span&gt;" style="ellipse;whiteSpace=wrap;html=1;" vertex="1" parent="1">
          <mxGeometry x="336" y="20" width="120" height="80" as="geometry" />
        </mxCell>
        <mxCell id="BYZ8a1TWTMMGRSyjIENO-2" value="" style="edgeStyle=orthogonalEdgeStyle;rounded=0;orthogonalLoop=1;jettySize=auto;html=1;" edge="1" parent="1" source="X2ZiE_l6V0W_xIytrOba-13" target="BYZ8a1TWTMMGRSyjIENO-1">
          <mxGeometry relative="1" as="geometry" />
        </mxCell>
        <mxCell id="X2ZiE_l6V0W_xIytrOba-13" value="&lt;div style=&quot;font-family: Consolas, &amp;quot;Courier New&amp;quot;, monospace; font-size: 14px; line-height: 19px; white-space: pre;&quot;&gt;int meows = 0&lt;/div&gt;" style="rounded=0;whiteSpace=wrap;html=1;" vertex="1" parent="1">
          <mxGeometry x="336" y="140" width="120" height="60" as="geometry" />
        </mxCell>
        <mxCell id="BYZ8a1TWTMMGRSyjIENO-8" value="" style="edgeStyle=orthogonalEdgeStyle;rounded=0;orthogonalLoop=1;jettySize=auto;html=1;" edge="1" parent="1" source="BYZ8a1TWTMMGRSyjIENO-1" target="BYZ8a1TWTMMGRSyjIENO-3">
          <mxGeometry relative="1" as="geometry" />
        </mxCell>
        <mxCell id="BYZ8a1TWTMMGRSyjIENO-1" value="&lt;font style=&quot;font-size: 18px;&quot;&gt;і = 0, s.length()&lt;/font&gt;" style="shape=hexagon;perimeter=hexagonPerimeter2;whiteSpace=wrap;html=1;fixedSize=1;" vertex="1" parent="1">
          <mxGeometry x="341" y="250" width="110" height="50" as="geometry" />
        </mxCell>
        <mxCell id="BYZ8a1TWTMMGRSyjIENO-6" value="" style="edgeStyle=orthogonalEdgeStyle;rounded=0;orthogonalLoop=1;jettySize=auto;html=1;" edge="1" parent="1" source="BYZ8a1TWTMMGRSyjIENO-3" target="BYZ8a1TWTMMGRSyjIENO-4">
          <mxGeometry relative="1" as="geometry" />
        </mxCell>
        <mxCell id="BYZ8a1TWTMMGRSyjIENO-33" value="" style="edgeStyle=orthogonalEdgeStyle;rounded=0;orthogonalLoop=1;jettySize=auto;html=1;" edge="1" parent="1" source="BYZ8a1TWTMMGRSyjIENO-3" target="BYZ8a1TWTMMGRSyjIENO-32">
          <mxGeometry relative="1" as="geometry" />
        </mxCell>
        <mxCell id="BYZ8a1TWTMMGRSyjIENO-3" value="&lt;div style=&quot;font-family: Consolas, &amp;quot;Courier New&amp;quot;, monospace; font-size: 14px; line-height: 19px; white-space: pre;&quot;&gt;s[i] == s[i + 1]&lt;/div&gt;" style="rhombus;whiteSpace=wrap;html=1;" vertex="1" parent="1">
          <mxGeometry x="316" y="340" width="160" height="80" as="geometry" />
        </mxCell>
        <mxCell id="BYZ8a1TWTMMGRSyjIENO-7" value="" style="edgeStyle=orthogonalEdgeStyle;rounded=0;orthogonalLoop=1;jettySize=auto;html=1;" edge="1" parent="1" source="BYZ8a1TWTMMGRSyjIENO-4" target="BYZ8a1TWTMMGRSyjIENO-5">
          <mxGeometry relative="1" as="geometry" />
        </mxCell>
        <mxCell id="BYZ8a1TWTMMGRSyjIENO-4" value="&lt;font style=&quot;font-size: 14px;&quot;&gt;meows++&lt;/font&gt;" style="rounded=0;whiteSpace=wrap;html=1;" vertex="1" parent="1">
          <mxGeometry x="520" y="350" width="120" height="60" as="geometry" />
        </mxCell>
        <mxCell id="BYZ8a1TWTMMGRSyjIENO-12" value="" style="edgeStyle=orthogonalEdgeStyle;rounded=0;orthogonalLoop=1;jettySize=auto;html=1;" edge="1" parent="1" source="BYZ8a1TWTMMGRSyjIENO-5">
          <mxGeometry relative="1" as="geometry">
            <mxPoint x="580" y="540" as="targetPoint" />
          </mxGeometry>
        </mxCell>
        <mxCell id="BYZ8a1TWTMMGRSyjIENO-5" value="&lt;font style=&quot;font-size: 14px;&quot;&gt;s.erase(i + 1, 1)&lt;/font&gt;" style="rounded=0;whiteSpace=wrap;html=1;" vertex="1" parent="1">
          <mxGeometry x="520" y="440" width="120" height="60" as="geometry" />
        </mxCell>
        <mxCell id="BYZ8a1TWTMMGRSyjIENO-9" value="&lt;font style=&quot;font-size: 14px;&quot;&gt;YES&lt;/font&gt;" style="text;strokeColor=none;align=center;fillColor=none;html=1;verticalAlign=middle;whiteSpace=wrap;rounded=0;" vertex="1" parent="1">
          <mxGeometry x="460" y="350" width="60" height="30" as="geometry" />
        </mxCell>
        <mxCell id="BYZ8a1TWTMMGRSyjIENO-10" value="&lt;font style=&quot;font-size: 14px;&quot;&gt;YES&lt;/font&gt;" style="text;strokeColor=none;align=center;fillColor=none;html=1;verticalAlign=middle;whiteSpace=wrap;rounded=0;" vertex="1" parent="1">
          <mxGeometry x="391" y="300" width="60" height="30" as="geometry" />
        </mxCell>
        <mxCell id="BYZ8a1TWTMMGRSyjIENO-13" value="&lt;font style=&quot;font-size: 18px;&quot;&gt;i--&lt;/font&gt;" style="rounded=0;whiteSpace=wrap;html=1;" vertex="1" parent="1">
          <mxGeometry x="540" y="539.9999999999999" width="90" height="38.57" as="geometry" />
        </mxCell>
        <mxCell id="BYZ8a1TWTMMGRSyjIENO-22" value="" style="endArrow=none;html=1;rounded=0;" edge="1" parent="1">
          <mxGeometry width="50" height="50" relative="1" as="geometry">
            <mxPoint x="630" y="560" as="sourcePoint" />
            <mxPoint x="760" y="560" as="targetPoint" />
          </mxGeometry>
        </mxCell>
        <mxCell id="BYZ8a1TWTMMGRSyjIENO-24" value="" style="endArrow=none;html=1;rounded=0;" edge="1" parent="1">
          <mxGeometry width="50" height="50" relative="1" as="geometry">
            <mxPoint x="760" y="590" as="sourcePoint" />
            <mxPoint x="760" y="280" as="targetPoint" />
          </mxGeometry>
        </mxCell>
        <mxCell id="BYZ8a1TWTMMGRSyjIENO-25" value="" style="endArrow=classic;html=1;rounded=0;entryX=1;entryY=0.5;entryDx=0;entryDy=0;" edge="1" parent="1" target="BYZ8a1TWTMMGRSyjIENO-1">
          <mxGeometry width="50" height="50" relative="1" as="geometry">
            <mxPoint x="760" y="280" as="sourcePoint" />
            <mxPoint x="610" y="260" as="targetPoint" />
          </mxGeometry>
        </mxCell>
        <mxCell id="BYZ8a1TWTMMGRSyjIENO-26" value="&lt;font style=&quot;font-size: 14px;&quot;&gt;YES&lt;/font&gt;" style="text;strokeColor=none;align=center;fillColor=none;html=1;verticalAlign=middle;whiteSpace=wrap;rounded=0;" vertex="1" parent="1">
          <mxGeometry x="440" y="250" width="60" height="30" as="geometry" />
        </mxCell>
        <mxCell id="BYZ8a1TWTMMGRSyjIENO-27" value="&lt;font style=&quot;font-size: 14px;&quot;&gt;return meows&lt;/font&gt;" style="ellipse;whiteSpace=wrap;html=1;" vertex="1" parent="1">
          <mxGeometry x="341" y="510" width="120" height="80" as="geometry" />
        </mxCell>
        <mxCell id="BYZ8a1TWTMMGRSyjIENO-28" value="" style="endArrow=none;html=1;rounded=0;entryX=0.085;entryY=0.224;entryDx=0;entryDy=0;entryPerimeter=0;" edge="1" parent="1" target="BYZ8a1TWTMMGRSyjIENO-1">
          <mxGeometry width="50" height="50" relative="1" as="geometry">
            <mxPoint x="300" y="260" as="sourcePoint" />
            <mxPoint x="353.98" y="263.78" as="targetPoint" />
          </mxGeometry>
        </mxCell>
        <mxCell id="BYZ8a1TWTMMGRSyjIENO-29" value="" style="endArrow=none;html=1;rounded=0;" edge="1" parent="1">
          <mxGeometry width="50" height="50" relative="1" as="geometry">
            <mxPoint x="300" y="540" as="sourcePoint" />
            <mxPoint x="300" y="260" as="targetPoint" />
          </mxGeometry>
        </mxCell>
        <mxCell id="BYZ8a1TWTMMGRSyjIENO-30" value="" style="endArrow=classic;html=1;rounded=0;entryX=0.006;entryY=0.378;entryDx=0;entryDy=0;entryPerimeter=0;" edge="1" parent="1" target="BYZ8a1TWTMMGRSyjIENO-27">
          <mxGeometry width="50" height="50" relative="1" as="geometry">
            <mxPoint x="300" y="540" as="sourcePoint" />
            <mxPoint x="340" y="540" as="targetPoint" />
          </mxGeometry>
        </mxCell>
        <mxCell id="BYZ8a1TWTMMGRSyjIENO-31" value="&lt;font style=&quot;font-size: 14px;&quot;&gt;NO&lt;/font&gt;" style="text;strokeColor=none;align=center;fillColor=none;html=1;verticalAlign=middle;whiteSpace=wrap;rounded=0;" vertex="1" parent="1">
          <mxGeometry x="300" y="230" width="60" height="30" as="geometry" />
        </mxCell>
        <mxCell id="BYZ8a1TWTMMGRSyjIENO-32" value="&lt;font style=&quot;font-size: 18px;&quot;&gt;i++&lt;/font&gt;" style="rounded=0;whiteSpace=wrap;html=1;" vertex="1" parent="1">
          <mxGeometry x="350" y="450" width="90" height="40" as="geometry" />
        </mxCell>
        <mxCell id="BYZ8a1TWTMMGRSyjIENO-35" value="&lt;font style=&quot;font-size: 14px;&quot;&gt;NO&lt;/font&gt;" style="text;strokeColor=none;align=center;fillColor=none;html=1;verticalAlign=middle;whiteSpace=wrap;rounded=0;" vertex="1" parent="1">
          <mxGeometry x="391" y="420" width="60" height="30" as="geometry" />
        </mxCell>
        <mxCell id="BYZ8a1TWTMMGRSyjIENO-36" value="" style="endArrow=none;html=1;rounded=0;exitX=1;exitY=0.25;exitDx=0;exitDy=0;" edge="1" parent="1" source="BYZ8a1TWTMMGRSyjIENO-32">
          <mxGeometry width="50" height="50" relative="1" as="geometry">
            <mxPoint x="450" y="470" as="sourcePoint" />
            <mxPoint x="490" y="460" as="targetPoint" />
          </mxGeometry>
        </mxCell>
        <mxCell id="BYZ8a1TWTMMGRSyjIENO-37" value="" style="endArrow=none;html=1;rounded=0;" edge="1" parent="1">
          <mxGeometry width="50" height="50" relative="1" as="geometry">
            <mxPoint x="490" y="590" as="sourcePoint" />
            <mxPoint x="490" y="460" as="targetPoint" />
          </mxGeometry>
        </mxCell>
        <mxCell id="BYZ8a1TWTMMGRSyjIENO-38" value="" style="endArrow=none;html=1;rounded=0;" edge="1" parent="1">
          <mxGeometry width="50" height="50" relative="1" as="geometry">
            <mxPoint x="490" y="590" as="sourcePoint" />
            <mxPoint x="760" y="590" as="targetPoint" />
          </mxGeometry>
        </mxCell>
      </root>
    </mxGraphModel>
  </diagram>
</mxfile>
